<mxfile host="app.diagrams.net" agent="Mozilla/5.0 (Windows NT 10.0; Win64; x64) AppleWebKit/537.36 (KHTML, like Gecko) Chrome/127.0.0.0 Safari/537.36" version="24.7.7">
  <diagram id="prtHgNgQTEPvFCAcTncT" name="Page-1">
    <mxGraphModel dx="968" dy="655" grid="1" gridSize="10" guides="1" tooltips="1" connect="1" arrows="1" fold="1" page="1" pageScale="1" pageWidth="827" pageHeight="1169" math="0" shadow="0">
      <root>
        <mxCell id="0" />
        <mxCell id="1" parent="0" />
        <mxCell id="noe4gfNRGWv2lA2J6sTW-7" value="Activación y Renovación actual" style="swimlane;childLayout=stackLayout;resizeParent=1;resizeParentMax=0;horizontal=1;startSize=20;horizontalStack=0;html=1;" vertex="1" parent="1">
          <mxGeometry x="20" y="10" width="770" height="540" as="geometry" />
        </mxCell>
        <mxCell id="noe4gfNRGWv2lA2J6sTW-8" value="Solicitante" style="swimlane;startSize=40;horizontal=0;html=1;" vertex="1" parent="noe4gfNRGWv2lA2J6sTW-7">
          <mxGeometry y="20" width="770" height="120" as="geometry" />
        </mxCell>
        <mxCell id="noe4gfNRGWv2lA2J6sTW-21" style="edgeStyle=orthogonalEdgeStyle;rounded=0;orthogonalLoop=1;jettySize=auto;html=1;exitX=1;exitY=0.5;exitDx=0;exitDy=0;entryX=0;entryY=0.5;entryDx=0;entryDy=0;" edge="1" parent="noe4gfNRGWv2lA2J6sTW-8" source="noe4gfNRGWv2lA2J6sTW-16" target="noe4gfNRGWv2lA2J6sTW-20">
          <mxGeometry relative="1" as="geometry" />
        </mxCell>
        <mxCell id="noe4gfNRGWv2lA2J6sTW-16" value="" style="ellipse;html=1;shape=endState;fillColor=strokeColor;" vertex="1" parent="noe4gfNRGWv2lA2J6sTW-8">
          <mxGeometry x="70" y="40" width="30" height="30" as="geometry" />
        </mxCell>
        <mxCell id="noe4gfNRGWv2lA2J6sTW-29" style="edgeStyle=orthogonalEdgeStyle;rounded=0;orthogonalLoop=1;jettySize=auto;html=1;exitX=1;exitY=0.5;exitDx=0;exitDy=0;entryX=0;entryY=0.5;entryDx=0;entryDy=0;" edge="1" parent="noe4gfNRGWv2lA2J6sTW-8" source="noe4gfNRGWv2lA2J6sTW-20" target="noe4gfNRGWv2lA2J6sTW-27">
          <mxGeometry relative="1" as="geometry" />
        </mxCell>
        <mxCell id="noe4gfNRGWv2lA2J6sTW-20" value="Generar formulario" style="rounded=1;whiteSpace=wrap;html=1;" vertex="1" parent="noe4gfNRGWv2lA2J6sTW-8">
          <mxGeometry x="150" y="33.75" width="110" height="42.5" as="geometry" />
        </mxCell>
        <mxCell id="noe4gfNRGWv2lA2J6sTW-27" value="Firmar solicitante" style="rounded=1;whiteSpace=wrap;html=1;" vertex="1" parent="noe4gfNRGWv2lA2J6sTW-8">
          <mxGeometry x="309" y="33.75" width="110" height="42.5" as="geometry" />
        </mxCell>
        <mxCell id="noe4gfNRGWv2lA2J6sTW-50" value="Enviar solicitud&amp;nbsp;" style="rounded=1;whiteSpace=wrap;html=1;" vertex="1" parent="noe4gfNRGWv2lA2J6sTW-8">
          <mxGeometry x="480" y="33.75" width="110" height="42.5" as="geometry" />
        </mxCell>
        <mxCell id="noe4gfNRGWv2lA2J6sTW-9" value="Jefe Inmediato" style="swimlane;startSize=40;horizontal=0;html=1;" vertex="1" parent="noe4gfNRGWv2lA2J6sTW-7">
          <mxGeometry y="140" width="770" height="100" as="geometry" />
        </mxCell>
        <mxCell id="noe4gfNRGWv2lA2J6sTW-43" value="Firmar Jefe" style="rounded=1;whiteSpace=wrap;html=1;" vertex="1" parent="noe4gfNRGWv2lA2J6sTW-9">
          <mxGeometry x="309" y="20" width="110" height="42.5" as="geometry" />
        </mxCell>
        <mxCell id="noe4gfNRGWv2lA2J6sTW-35" style="edgeStyle=orthogonalEdgeStyle;rounded=0;orthogonalLoop=1;jettySize=auto;html=1;exitX=0;exitY=0.5;exitDx=0;exitDy=0;entryX=0.002;entryY=0.38;entryDx=0;entryDy=0;entryPerimeter=0;" edge="1" parent="noe4gfNRGWv2lA2J6sTW-7" source="noe4gfNRGWv2lA2J6sTW-28" target="noe4gfNRGWv2lA2J6sTW-34">
          <mxGeometry relative="1" as="geometry">
            <Array as="points">
              <mxPoint x="150" y="290" />
              <mxPoint x="110" y="290" />
              <mxPoint x="110" y="450" />
            </Array>
          </mxGeometry>
        </mxCell>
        <mxCell id="noe4gfNRGWv2lA2J6sTW-10" value="Sistema de Gestión&lt;div&gt;&amp;nbsp;de incidentes&lt;/div&gt;" style="swimlane;startSize=40;horizontal=0;html=1;" vertex="1" parent="noe4gfNRGWv2lA2J6sTW-7">
          <mxGeometry y="240" width="770" height="130" as="geometry" />
        </mxCell>
        <mxCell id="noe4gfNRGWv2lA2J6sTW-28" value="Registrar solicitud en sistema" style="rounded=1;whiteSpace=wrap;html=1;" vertex="1" parent="noe4gfNRGWv2lA2J6sTW-10">
          <mxGeometry x="150" y="30" width="110" height="42.5" as="geometry" />
        </mxCell>
        <mxCell id="noe4gfNRGWv2lA2J6sTW-44" style="edgeStyle=orthogonalEdgeStyle;rounded=0;orthogonalLoop=1;jettySize=auto;html=1;" edge="1" parent="noe4gfNRGWv2lA2J6sTW-7" source="noe4gfNRGWv2lA2J6sTW-27" target="noe4gfNRGWv2lA2J6sTW-43">
          <mxGeometry relative="1" as="geometry" />
        </mxCell>
        <mxCell id="noe4gfNRGWv2lA2J6sTW-51" style="edgeStyle=orthogonalEdgeStyle;rounded=0;orthogonalLoop=1;jettySize=auto;html=1;exitX=1;exitY=0.5;exitDx=0;exitDy=0;entryX=0;entryY=0.5;entryDx=0;entryDy=0;" edge="1" parent="noe4gfNRGWv2lA2J6sTW-7" source="noe4gfNRGWv2lA2J6sTW-43" target="noe4gfNRGWv2lA2J6sTW-50">
          <mxGeometry relative="1" as="geometry" />
        </mxCell>
        <mxCell id="noe4gfNRGWv2lA2J6sTW-52" style="edgeStyle=orthogonalEdgeStyle;rounded=0;orthogonalLoop=1;jettySize=auto;html=1;exitX=0.5;exitY=1;exitDx=0;exitDy=0;entryX=0.992;entryY=0.478;entryDx=0;entryDy=0;entryPerimeter=0;" edge="1" parent="noe4gfNRGWv2lA2J6sTW-7" source="noe4gfNRGWv2lA2J6sTW-50" target="noe4gfNRGWv2lA2J6sTW-28">
          <mxGeometry relative="1" as="geometry">
            <Array as="points">
              <mxPoint x="535" y="290" />
              <mxPoint x="259" y="290" />
            </Array>
          </mxGeometry>
        </mxCell>
        <mxCell id="noe4gfNRGWv2lA2J6sTW-11" value="DITIC" style="swimlane;startSize=40;horizontal=0;html=1;" vertex="1" parent="noe4gfNRGWv2lA2J6sTW-7">
          <mxGeometry y="370" width="770" height="170" as="geometry" />
        </mxCell>
        <mxCell id="noe4gfNRGWv2lA2J6sTW-40" style="edgeStyle=orthogonalEdgeStyle;rounded=0;orthogonalLoop=1;jettySize=auto;html=1;entryX=0;entryY=0.5;entryDx=0;entryDy=0;" edge="1" parent="noe4gfNRGWv2lA2J6sTW-11" source="noe4gfNRGWv2lA2J6sTW-18" target="noe4gfNRGWv2lA2J6sTW-39">
          <mxGeometry relative="1" as="geometry" />
        </mxCell>
        <mxCell id="noe4gfNRGWv2lA2J6sTW-41" style="edgeStyle=orthogonalEdgeStyle;rounded=0;orthogonalLoop=1;jettySize=auto;html=1;entryX=0;entryY=0.5;entryDx=0;entryDy=0;" edge="1" parent="noe4gfNRGWv2lA2J6sTW-11" source="noe4gfNRGWv2lA2J6sTW-18" target="noe4gfNRGWv2lA2J6sTW-38">
          <mxGeometry relative="1" as="geometry" />
        </mxCell>
        <mxCell id="noe4gfNRGWv2lA2J6sTW-18" value="" style="rhombus;" vertex="1" parent="noe4gfNRGWv2lA2J6sTW-11">
          <mxGeometry x="300" y="70" width="30" height="30" as="geometry" />
        </mxCell>
        <mxCell id="noe4gfNRGWv2lA2J6sTW-37" style="edgeStyle=orthogonalEdgeStyle;rounded=0;orthogonalLoop=1;jettySize=auto;html=1;exitX=1;exitY=0.5;exitDx=0;exitDy=0;" edge="1" parent="noe4gfNRGWv2lA2J6sTW-11" source="noe4gfNRGWv2lA2J6sTW-34" target="noe4gfNRGWv2lA2J6sTW-18">
          <mxGeometry relative="1" as="geometry" />
        </mxCell>
        <mxCell id="noe4gfNRGWv2lA2J6sTW-34" value="Revisar y procesar solicitud" style="rounded=1;whiteSpace=wrap;html=1;" vertex="1" parent="noe4gfNRGWv2lA2J6sTW-11">
          <mxGeometry x="150" y="63.75" width="110" height="42.5" as="geometry" />
        </mxCell>
        <mxCell id="noe4gfNRGWv2lA2J6sTW-47" style="edgeStyle=orthogonalEdgeStyle;rounded=0;orthogonalLoop=1;jettySize=auto;html=1;exitX=1;exitY=0.5;exitDx=0;exitDy=0;entryX=0;entryY=0.5;entryDx=0;entryDy=0;" edge="1" parent="noe4gfNRGWv2lA2J6sTW-11" source="noe4gfNRGWv2lA2J6sTW-38" target="noe4gfNRGWv2lA2J6sTW-46">
          <mxGeometry relative="1" as="geometry" />
        </mxCell>
        <mxCell id="noe4gfNRGWv2lA2J6sTW-38" value="Aprobación&amp;nbsp;&lt;div&gt;servicio&lt;/div&gt;" style="rounded=1;whiteSpace=wrap;html=1;" vertex="1" parent="noe4gfNRGWv2lA2J6sTW-11">
          <mxGeometry x="400" y="21.25" width="110" height="42.5" as="geometry" />
        </mxCell>
        <mxCell id="noe4gfNRGWv2lA2J6sTW-48" style="edgeStyle=orthogonalEdgeStyle;rounded=0;orthogonalLoop=1;jettySize=auto;html=1;exitX=1;exitY=0.5;exitDx=0;exitDy=0;" edge="1" parent="noe4gfNRGWv2lA2J6sTW-11" source="noe4gfNRGWv2lA2J6sTW-39" target="noe4gfNRGWv2lA2J6sTW-46">
          <mxGeometry relative="1" as="geometry" />
        </mxCell>
        <mxCell id="noe4gfNRGWv2lA2J6sTW-39" value="Denegacion servicio" style="rounded=1;whiteSpace=wrap;html=1;" vertex="1" parent="noe4gfNRGWv2lA2J6sTW-11">
          <mxGeometry x="400" y="106.25" width="110" height="42.5" as="geometry" />
        </mxCell>
        <mxCell id="noe4gfNRGWv2lA2J6sTW-49" style="edgeStyle=orthogonalEdgeStyle;rounded=0;orthogonalLoop=1;jettySize=auto;html=1;" edge="1" parent="noe4gfNRGWv2lA2J6sTW-11" source="noe4gfNRGWv2lA2J6sTW-46" target="noe4gfNRGWv2lA2J6sTW-17">
          <mxGeometry relative="1" as="geometry" />
        </mxCell>
        <mxCell id="noe4gfNRGWv2lA2J6sTW-46" value="Notificar decision" style="rounded=1;whiteSpace=wrap;html=1;" vertex="1" parent="noe4gfNRGWv2lA2J6sTW-11">
          <mxGeometry x="570" y="63.75" width="90" height="42.5" as="geometry" />
        </mxCell>
        <mxCell id="noe4gfNRGWv2lA2J6sTW-17" value="" style="ellipse;fillColor=strokeColor;html=1;" vertex="1" parent="noe4gfNRGWv2lA2J6sTW-11">
          <mxGeometry x="710" y="70" width="30" height="30" as="geometry" />
        </mxCell>
        <mxCell id="noe4gfNRGWv2lA2J6sTW-54" value="Automatización VPN" style="swimlane;childLayout=stackLayout;resizeParent=1;resizeParentMax=0;horizontal=1;startSize=20;horizontalStack=0;html=1;" vertex="1" parent="1">
          <mxGeometry x="20" y="585" width="770" height="440" as="geometry" />
        </mxCell>
        <mxCell id="noe4gfNRGWv2lA2J6sTW-55" value="Solicitante" style="swimlane;startSize=40;horizontal=0;html=1;" vertex="1" parent="noe4gfNRGWv2lA2J6sTW-54">
          <mxGeometry y="20" width="770" height="120" as="geometry" />
        </mxCell>
        <mxCell id="noe4gfNRGWv2lA2J6sTW-56" style="edgeStyle=orthogonalEdgeStyle;rounded=0;orthogonalLoop=1;jettySize=auto;html=1;exitX=1;exitY=0.5;exitDx=0;exitDy=0;entryX=0;entryY=0.5;entryDx=0;entryDy=0;" edge="1" parent="noe4gfNRGWv2lA2J6sTW-55" source="noe4gfNRGWv2lA2J6sTW-57" target="noe4gfNRGWv2lA2J6sTW-59">
          <mxGeometry relative="1" as="geometry" />
        </mxCell>
        <mxCell id="noe4gfNRGWv2lA2J6sTW-57" value="" style="ellipse;html=1;shape=endState;fillColor=strokeColor;" vertex="1" parent="noe4gfNRGWv2lA2J6sTW-55">
          <mxGeometry x="70" y="40" width="30" height="30" as="geometry" />
        </mxCell>
        <mxCell id="noe4gfNRGWv2lA2J6sTW-58" style="edgeStyle=orthogonalEdgeStyle;rounded=0;orthogonalLoop=1;jettySize=auto;html=1;exitX=1;exitY=0.5;exitDx=0;exitDy=0;entryX=0;entryY=0.5;entryDx=0;entryDy=0;" edge="1" parent="noe4gfNRGWv2lA2J6sTW-55" source="noe4gfNRGWv2lA2J6sTW-59" target="noe4gfNRGWv2lA2J6sTW-60">
          <mxGeometry relative="1" as="geometry" />
        </mxCell>
        <mxCell id="noe4gfNRGWv2lA2J6sTW-59" value="Ingresar al portal trabajadores" style="rounded=1;whiteSpace=wrap;html=1;" vertex="1" parent="noe4gfNRGWv2lA2J6sTW-55">
          <mxGeometry x="150" y="33.75" width="110" height="42.5" as="geometry" />
        </mxCell>
        <mxCell id="noe4gfNRGWv2lA2J6sTW-60" value="Firma solicitante" style="rounded=1;whiteSpace=wrap;html=1;" vertex="1" parent="noe4gfNRGWv2lA2J6sTW-55">
          <mxGeometry x="309" y="33.75" width="110" height="42.5" as="geometry" />
        </mxCell>
        <mxCell id="noe4gfNRGWv2lA2J6sTW-61" value="Enviar solicitud&amp;nbsp;" style="rounded=1;whiteSpace=wrap;html=1;" vertex="1" parent="noe4gfNRGWv2lA2J6sTW-55">
          <mxGeometry x="480" y="33.75" width="110" height="42.5" as="geometry" />
        </mxCell>
        <mxCell id="noe4gfNRGWv2lA2J6sTW-65" value="Portal trabajadores&amp;nbsp;&lt;div&gt;Centrosur&lt;/div&gt;" style="swimlane;startSize=40;horizontal=0;html=1;" vertex="1" parent="noe4gfNRGWv2lA2J6sTW-54">
          <mxGeometry y="140" width="770" height="130" as="geometry" />
        </mxCell>
        <mxCell id="noe4gfNRGWv2lA2J6sTW-66" value="Nueva VPN" style="rounded=1;whiteSpace=wrap;html=1;" vertex="1" parent="noe4gfNRGWv2lA2J6sTW-65">
          <mxGeometry x="150" y="30" width="110" height="42.5" as="geometry" />
        </mxCell>
        <mxCell id="noe4gfNRGWv2lA2J6sTW-83" value="Renovación VPN" style="rounded=1;whiteSpace=wrap;html=1;" vertex="1" parent="noe4gfNRGWv2lA2J6sTW-65">
          <mxGeometry x="290" y="30" width="110" height="42.5" as="geometry" />
        </mxCell>
        <mxCell id="noe4gfNRGWv2lA2J6sTW-84" value="Nueva VPN" style="rounded=1;whiteSpace=wrap;html=1;" vertex="1" parent="noe4gfNRGWv2lA2J6sTW-65">
          <mxGeometry x="540" y="25" width="110" height="42.5" as="geometry" />
        </mxCell>
        <mxCell id="noe4gfNRGWv2lA2J6sTW-67" style="edgeStyle=orthogonalEdgeStyle;rounded=0;orthogonalLoop=1;jettySize=auto;html=1;" edge="1" parent="noe4gfNRGWv2lA2J6sTW-54" source="noe4gfNRGWv2lA2J6sTW-60">
          <mxGeometry relative="1" as="geometry">
            <mxPoint x="364" y="160.00000000000023" as="targetPoint" />
          </mxGeometry>
        </mxCell>
        <mxCell id="noe4gfNRGWv2lA2J6sTW-68" style="edgeStyle=orthogonalEdgeStyle;rounded=0;orthogonalLoop=1;jettySize=auto;html=1;exitX=1;exitY=0.5;exitDx=0;exitDy=0;entryX=0;entryY=0.5;entryDx=0;entryDy=0;" edge="1" parent="noe4gfNRGWv2lA2J6sTW-54" target="noe4gfNRGWv2lA2J6sTW-61">
          <mxGeometry relative="1" as="geometry">
            <mxPoint x="419" y="181.25000000000023" as="sourcePoint" />
          </mxGeometry>
        </mxCell>
        <mxCell id="noe4gfNRGWv2lA2J6sTW-70" value="DITIC" style="swimlane;startSize=40;horizontal=0;html=1;" vertex="1" parent="noe4gfNRGWv2lA2J6sTW-54">
          <mxGeometry y="270" width="770" height="170" as="geometry" />
        </mxCell>
        <mxCell id="noe4gfNRGWv2lA2J6sTW-71" style="edgeStyle=orthogonalEdgeStyle;rounded=0;orthogonalLoop=1;jettySize=auto;html=1;entryX=0;entryY=0.5;entryDx=0;entryDy=0;" edge="1" parent="noe4gfNRGWv2lA2J6sTW-70" source="noe4gfNRGWv2lA2J6sTW-73" target="noe4gfNRGWv2lA2J6sTW-79">
          <mxGeometry relative="1" as="geometry" />
        </mxCell>
        <mxCell id="noe4gfNRGWv2lA2J6sTW-72" style="edgeStyle=orthogonalEdgeStyle;rounded=0;orthogonalLoop=1;jettySize=auto;html=1;entryX=0;entryY=0.5;entryDx=0;entryDy=0;" edge="1" parent="noe4gfNRGWv2lA2J6sTW-70" source="noe4gfNRGWv2lA2J6sTW-73" target="noe4gfNRGWv2lA2J6sTW-77">
          <mxGeometry relative="1" as="geometry" />
        </mxCell>
        <mxCell id="noe4gfNRGWv2lA2J6sTW-73" value="" style="rhombus;" vertex="1" parent="noe4gfNRGWv2lA2J6sTW-70">
          <mxGeometry x="300" y="70" width="30" height="30" as="geometry" />
        </mxCell>
        <mxCell id="noe4gfNRGWv2lA2J6sTW-74" style="edgeStyle=orthogonalEdgeStyle;rounded=0;orthogonalLoop=1;jettySize=auto;html=1;exitX=1;exitY=0.5;exitDx=0;exitDy=0;" edge="1" parent="noe4gfNRGWv2lA2J6sTW-70" source="noe4gfNRGWv2lA2J6sTW-75" target="noe4gfNRGWv2lA2J6sTW-73">
          <mxGeometry relative="1" as="geometry" />
        </mxCell>
        <mxCell id="noe4gfNRGWv2lA2J6sTW-75" value="Proceso solicitud" style="rounded=1;whiteSpace=wrap;html=1;" vertex="1" parent="noe4gfNRGWv2lA2J6sTW-70">
          <mxGeometry x="150" y="63.75" width="110" height="42.5" as="geometry" />
        </mxCell>
        <mxCell id="noe4gfNRGWv2lA2J6sTW-76" style="edgeStyle=orthogonalEdgeStyle;rounded=0;orthogonalLoop=1;jettySize=auto;html=1;exitX=1;exitY=0.5;exitDx=0;exitDy=0;entryX=0;entryY=0.5;entryDx=0;entryDy=0;" edge="1" parent="noe4gfNRGWv2lA2J6sTW-70" source="noe4gfNRGWv2lA2J6sTW-77" target="noe4gfNRGWv2lA2J6sTW-81">
          <mxGeometry relative="1" as="geometry" />
        </mxCell>
        <mxCell id="noe4gfNRGWv2lA2J6sTW-77" value="Aprovacion&amp;nbsp;&lt;div&gt;servicio&lt;/div&gt;" style="rounded=1;whiteSpace=wrap;html=1;" vertex="1" parent="noe4gfNRGWv2lA2J6sTW-70">
          <mxGeometry x="400" y="21.25" width="110" height="42.5" as="geometry" />
        </mxCell>
        <mxCell id="noe4gfNRGWv2lA2J6sTW-78" style="edgeStyle=orthogonalEdgeStyle;rounded=0;orthogonalLoop=1;jettySize=auto;html=1;exitX=1;exitY=0.5;exitDx=0;exitDy=0;" edge="1" parent="noe4gfNRGWv2lA2J6sTW-70" source="noe4gfNRGWv2lA2J6sTW-79" target="noe4gfNRGWv2lA2J6sTW-81">
          <mxGeometry relative="1" as="geometry" />
        </mxCell>
        <mxCell id="noe4gfNRGWv2lA2J6sTW-79" value="Denegacion servicio" style="rounded=1;whiteSpace=wrap;html=1;" vertex="1" parent="noe4gfNRGWv2lA2J6sTW-70">
          <mxGeometry x="400" y="106.25" width="110" height="42.5" as="geometry" />
        </mxCell>
        <mxCell id="noe4gfNRGWv2lA2J6sTW-80" style="edgeStyle=orthogonalEdgeStyle;rounded=0;orthogonalLoop=1;jettySize=auto;html=1;" edge="1" parent="noe4gfNRGWv2lA2J6sTW-70" source="noe4gfNRGWv2lA2J6sTW-81" target="noe4gfNRGWv2lA2J6sTW-82">
          <mxGeometry relative="1" as="geometry" />
        </mxCell>
        <mxCell id="noe4gfNRGWv2lA2J6sTW-81" value="Notificar decision" style="rounded=1;whiteSpace=wrap;html=1;" vertex="1" parent="noe4gfNRGWv2lA2J6sTW-70">
          <mxGeometry x="570" y="63.75" width="90" height="42.5" as="geometry" />
        </mxCell>
        <mxCell id="noe4gfNRGWv2lA2J6sTW-82" value="" style="ellipse;fillColor=strokeColor;html=1;" vertex="1" parent="noe4gfNRGWv2lA2J6sTW-70">
          <mxGeometry x="710" y="70" width="30" height="30" as="geometry" />
        </mxCell>
      </root>
    </mxGraphModel>
  </diagram>
</mxfile>
